<?xml version="1.0" standalone="no"?>
<!DOCTYPE svg PUBLIC "-//W3C//DTD SVG 20010904//EN"
 "http://www.w3.org/TR/2001/REC-SVG-20010904/DTD/svg10.dtd">
<svg version="1.0" xmlns="http://www.w3.org/2000/svg"
 width="512.000000pt" height="512.000000pt" viewBox="0 0 512.000000 512.000000"
 preserveAspectRatio="xMidYMid meet">

<g transform="translate(0.000000,512.000000) scale(0.100000,-0.100000)"
fill="#000000" stroke="none">
<path d="M0 3550 l0 -750 149 0 149 0 92 155 c52 87 97 152 102 147 4 -4 48
-73 96 -153 l88 -144 147 -3 147 -3 0 751 0 750 -150 0 -150 0 0 -452 0 -453
-92 153 -91 153 -91 -153 -91 -152 -3 452 -2 452 -150 0 -150 0 0 -750z"/>
<path d="M1120 3550 l0 -750 300 0 300 0 0 150 0 150 -150 0 -150 0 0 150 0
150 150 0 150 0 0 150 0 150 -150 0 -150 0 0 150 0 150 150 0 150 0 0 150 0
150 -300 0 -300 0 0 -750z"/>
<path d="M1870 3550 l0 -750 244 0 c134 0 268 5 297 10 133 25 260 126 322
257 30 64 32 74 32 183 0 108 -2 119 -32 182 -17 37 -50 87 -72 111 l-41 44
30 66 c62 132 62 262 1 393 -55 118 -179 215 -309 243 -30 6 -145 11 -262 11
l-210 0 0 -750z m451 428 c41 -23 79 -84 79 -128 0 -13 -9 -43 -21 -66 -26
-54 -82 -84 -157 -84 l-52 0 0 150 0 150 56 0 c39 0 68 -7 95 -22z m69 -596
c50 -25 80 -75 80 -132 0 -57 -30 -107 -80 -132 -26 -13 -59 -18 -127 -18
l-93 0 0 150 0 150 93 0 c68 0 101 -5 127 -18z"/>
<path d="M3195 4286 c-159 -38 -290 -166 -330 -321 -8 -32 -15 -72 -15 -87 l0
-28 149 0 149 0 6 31 c13 67 77 119 146 119 50 0 107 -38 130 -85 25 -52 25
-78 0 -130 -20 -41 -79 -85 -114 -85 -14 0 -16 -19 -16 -150 0 -131 2 -150 16
-150 35 0 94 -44 114 -85 25 -52 25 -78 -1 -131 -22 -47 -82 -84 -133 -84 -65
0 -129 54 -142 119 l-6 31 -149 0 -149 0 0 -28 c0 -50 30 -146 63 -201 92
-154 281 -243 452 -214 329 57 488 419 304 697 l-31 46 31 46 c65 99 92 221
72 329 -48 256 -298 421 -546 361z"/>
<path d="M4565 4286 c-74 -18 -169 -73 -219 -126 -53 -56 -99 -145 -115 -218
-15 -72 -15 -712 0 -784 49 -230 281 -389 510 -350 182 31 330 172 368 350 15
72 15 712 0 784 -19 87 -59 158 -124 223 -114 114 -268 158 -420 121z m175
-306 c26 -13 47 -34 60 -60 19 -37 20 -58 20 -371 0 -325 0 -332 -22 -371 -25
-43 -80 -78 -124 -78 -47 0 -108 37 -132 79 -21 38 -22 48 -22 371 0 319 1
334 21 370 25 44 81 79 127 80 18 0 51 -9 72 -20z"/>
<path d="M3830 2950 l0 -150 150 0 150 0 0 150 0 150 -150 0 -150 0 0 -150z"/>
<path d="M450 2324 c-162 -95 -294 -176 -293 -180 1 -3 136 -84 299 -180 l297
-174 295 172 c162 95 295 178 295 183 0 9 -581 356 -593 354 -3 0 -138 -79
-300 -175z"/>
<path d="M2261 2327 c-161 -95 -293 -177 -292 -183 1 -5 134 -87 296 -181
l294 -173 301 176 c166 97 298 180 293 184 -9 9 -590 350 -595 350 -2 0 -135
-78 -297 -173z"/>
<path d="M4070 2330 c-157 -93 -291 -172 -298 -177 -9 -5 84 -65 284 -182 164
-96 303 -174 309 -174 9 0 534 302 587 338 15 10 -24 36 -279 186 -164 96
-302 175 -308 176 -5 1 -138 -75 -295 -167z"/>
<path d="M0 1528 l0 -355 300 -175 300 -176 0 356 -1 357 -291 170 c-160 94
-295 172 -300 173 -4 2 -8 -156 -8 -350z"/>
<path d="M1200 1705 l-295 -173 -3 -357 c-1 -196 1 -354 5 -352 137 77 573
335 586 345 16 14 17 44 17 364 0 191 -3 348 -7 347 -5 0 -141 -78 -303 -174z"/>
<path d="M1812 1525 l3 -357 295 -173 295 -173 3 351 c2 273 -1 354 -10 362
-9 9 -454 270 -581 342 -4 2 -6 -156 -5 -352z"/>
<path d="M3010 1707 l-295 -173 -3 -358 -2 -358 22 14 c13 8 148 88 301 177
l277 163 0 354 c0 195 -1 354 -2 354 -2 0 -136 -78 -298 -173z"/>
<path d="M3610 1528 l0 -354 294 -172 c162 -95 297 -172 300 -172 3 0 6 159 6
353 l0 352 -291 170 c-160 94 -295 172 -300 173 -5 2 -9 -146 -9 -350z"/>
<path d="M4808 1703 l-298 -175 0 -349 c0 -246 3 -349 11 -349 6 0 143 77 305
172 l294 172 0 353 c0 194 -3 353 -7 352 -5 0 -142 -79 -305 -176z"/>
</g>
</svg>
